<?xml version="1.0"?>
<svg xmlns="http://www.w3.org/2000/svg" xmlns:xlink="http://www.w3.org/1999/xlink" xmlns:svgjs="http://svgjs.com/svgjs" version="1.1" width="512" height="512" x="0" y="0" viewBox="0 0 512 512" style="enable-background:new 0 0 512 512" xml:space="preserve"><g><g xmlns="http://www.w3.org/2000/svg" id="Outline"><path d="M116.49,106.806l-.36,80a8,8,0,0,1-12.832,6.34l-7.552-5.723a174.524,174.524,0,0,0,17.133,168.011l-13.137,9.132a190.491,190.491,0,0,1-14.26-193.079,8,8,0,0,1,12-2.823l2.721,2.061.24-53.324-51.254,14.7,8.08,6.114a8,8,0,0,1,2.189,10.222A223.117,223.117,0,0,0,45.7,178.752l-15.023-5.5a239.222,239.222,0,0,1,11.511-26.373L26.772,135.21a8,8,0,0,1,2.622-14.069l76.89-22.061a8,8,0,0,1,10.206,7.726ZM41.466,363.593l14.3-7.186a222.645,222.645,0,0,1-21.55-131.758,227.228,227.228,0,0,1,5.515-27.033l-15.453-4.15a243.1,243.1,0,0,0-5.9,28.945A238.558,238.558,0,0,0,41.466,363.593Zm176.18-178.788a88.281,88.281,0,0,0-14.456,8.841l9.62,12.785a72.231,72.231,0,0,1,11.831-7.236ZM168,272h16v-8a71.8,71.8,0,0,1,18.612-48.255l-11.863-10.734A87.768,87.768,0,0,0,168,264ZM472,488V416H456v64H376V384h8V368H370.052a123.421,123.421,0,0,0-118.483-.145L251.3,368H192a32.04,32.04,0,0,0-30.9,40.378L129.943,394.1a14.637,14.637,0,0,1,2.344-3.077l17.37-17.37A8,8,0,0,0,152,368V264a104.281,104.281,0,0,1,76.167-100.231,8,8,0,0,0,4.751-11.779L214.019,120h83.962l-18.9,31.99a8,8,0,0,0,4.751,11.779A104.281,104.281,0,0,1,360,264v88h16V264a120.388,120.388,0,0,0-78.067-112.462l20.955-35.469A8,8,0,0,0,312,104H200a8,8,0,0,0-6.888,12.069l20.955,35.469A120.388,120.388,0,0,0,136,264V364.687l-15.027,15.026a30.54,30.54,0,0,0-5.612,7.711l-27-12.366A34.527,34.527,0,0,0,44.1,389.891c-9.2,17.123-2.663,39.766,14.772,48.5l93.282,46.64A104.583,104.583,0,0,0,198.66,496H312V480H198.66a88.49,88.49,0,0,1-39.351-9.285L66.031,424.077c-9.206-4.6-12.672-17.653-7.844-26.6a18.325,18.325,0,0,1,23.518-7.871l90.963,41.667A8,8,0,0,0,176,432h88V416H192a16,16,0,0,1,0-32h61.33a8,8,0,0,0,3.811-.966l2.07-1.121A107.481,107.481,0,0,1,360,380.756V480H328v16H464A8,8,0,0,0,472,488Zm-48-40a16,16,0,1,0-16,16A16.019,16.019,0,0,0,424,448ZM264,232v32a32,32,0,0,1,0,64v16H248V328a32.036,32.036,0,0,1-32-32h16a16.019,16.019,0,0,0,16,16V280a32,32,0,0,1,0-64V200h16v16a32.036,32.036,0,0,1,32,32H280A16.019,16.019,0,0,0,264,232Zm-16,0a16,16,0,0,0,0,32Zm16,48v32a16,16,0,0,0,0-32ZM287.331,34.216a224.08,224.08,0,0,1,189.35,183.161l15.761-2.754A240.04,240.04,0,0,0,119.413,58.668a8,8,0,0,0-2.195,10.87l26.705,41.988a8,8,0,0,0,11.374,2.236A173.573,173.573,0,0,1,280.38,83.438C375.526,96.882,442,185.229,428.552,280.376a174.446,174.446,0,0,1-12.347,44.3l-7.747-5.865a8,8,0,0,0-12.828,6.342l-.358,79.993a8,8,0,0,0,10.207,7.725l76.892-22.055a8,8,0,0,0,2.622-14.068l-15.245-11.54a241.547,241.547,0,0,0,25.7-125.749l-15.963,1.087a225.574,225.574,0,0,1-1.717,46.787,223.15,223.15,0,0,1-25.289,76.3,8,8,0,0,0,2.187,10.223l7.913,5.991-51.259,14.7.239-53.325,2.913,2.2a8,8,0,0,0,11.994-2.824,190.061,190.061,0,0,0,17.928-57.991C459.072,178.731,386.5,82.274,282.618,67.6A189.426,189.426,0,0,0,153.009,96L134.917,67.553A223.244,223.244,0,0,1,287.331,34.216Z" fill="#ffffff" data-original="#000000" style=""/></g></g></svg>
